# Blender v2.79 (sub 0) OBJ File: ''
# www.blender.org
mtllib armadillo_cage-with-normals.mtl
o armadillo_cage
v 10.578722 47.746658 0.543747
v 0.026994 49.162880 0.724226
v 10.017281 57.679489 15.881172
v 1.992745 59.069271 15.364250
v -7.144892 30.443436 -21.976770
v 16.896864 30.443436 -21.976770
v -4.834514 13.909605 1.287927
v 14.586486 13.909605 1.287927
v -14.024315 22.897245 11.183495
v 20.449207 20.954153 12.776236
v 24.227135 53.726551 22.435556
v 17.912807 43.716267 8.701468
v -12.822433 56.615635 22.092337
v -10.377234 44.572620 6.300479
v -25.047174 63.171494 2.824225
v -9.847443 71.107132 4.435819
v -8.775760 60.773415 -8.074868
v 20.942280 70.014389 5.889563
v 31.918493 66.265320 7.033699
v 22.091978 58.223808 -2.260803
v 64.009117 49.839581 23.522842
v 56.338112 68.388512 2.429575
v 45.068756 45.730911 12.516602
v 43.256451 63.128918 -2.678557
v 59.496204 41.852863 -22.360874
v 72.577873 47.112450 -17.252745
v 76.781586 33.491730 7.645743
v 57.841217 29.383059 -3.360500
v 59.844208 11.084113 30.017445
v 45.978821 10.576555 12.583781
v 57.166782 32.836349 40.528030
v 38.368355 36.501762 20.750593
v 34.405754 9.852425 47.100399
v 31.443151 12.321690 20.982048
v 37.827641 32.217411 50.432442
v 27.670013 39.765358 25.164927
v -58.976765 47.192959 5.706852
v -36.756157 44.452423 -0.679426
v -51.496048 58.784405 -18.892958
v -40.390591 56.321163 -19.776926
v -59.138290 28.260485 -29.846893
v -48.032837 25.797249 -30.730865
v -65.185699 23.309301 -3.192653
v -42.965096 20.568771 -9.578928
v -55.587162 15.140441 26.773848
v -32.849545 15.098474 11.190752
v -30.807936 38.380749 17.159132
v -53.545563 38.422710 29.995275
v -25.644802 7.323542 41.306702
v -18.968763 14.947425 15.643836
v -24.396139 37.326721 24.523214
v -29.191322 35.520340 48.119251
v 5.401142 59.068626 22.263947
v -17.561607 5.838092 85.601997
v 25.698187 5.838092 85.601997
v -17.561609 64.002190 62.735687
v 25.698187 64.002190 62.735687
v 29.349300 -3.677969 18.753670
v -16.681597 -3.677969 18.753670
v 31.402315 0.069304 45.077469
v -25.026939 -0.236036 42.932526
v 6.969059 -87.007439 57.924976
v 28.036892 -87.007439 69.934959
v 7.081354 -74.473663 57.727989
v 28.149185 -74.473663 69.737976
v 52.441624 -78.275131 33.909885
v 29.349161 -78.275124 20.745729
v 41.874325 -72.799973 49.390205
v 20.602245 -72.757828 35.233753
v 29.542938 -87.007431 20.405811
v 52.635399 -87.007439 33.569962
v 34.953846 -44.434547 62.222992
v 10.422073 -48.324600 48.714783
v 50.812187 -43.767189 35.254715
v 27.956743 -47.609863 19.332285
v 27.260622 -15.102022 65.268425
v 10.730064 -28.704754 55.292278
v 2.599091 -33.329899 49.876167
v 35.518753 -6.547550 39.851849
v 11.274238 -22.305538 21.982050
v -10.399332 -72.103088 50.891151
v -31.041977 -72.103088 65.234116
v -10.705908 -88.092728 52.556808
v -30.349344 -88.092728 66.027863
v -55.765766 -77.203835 31.697237
v -38.952126 -77.203827 17.025391
v -55.765770 -88.092728 31.697231
v -38.952126 -88.092720 17.025389
v -26.622086 -72.103088 30.577579
v -45.608276 -72.103088 45.730247
v -6.580488 -46.734413 42.980061
v -30.028164 -44.439770 59.824509
v -26.778645 -39.725498 17.882555
v -48.287819 -39.543678 35.257538
v -14.024063 -17.251568 68.672638
v -5.512320 -29.571730 55.657787
v -0.451488 -33.666836 47.919537
v -11.609790 -19.791054 20.753969
v -27.841187 -3.259213 48.103733
v 9.239771 -17.577791 63.317440
v -3.766762 -17.577795 65.208450
v 9.239771 -28.480471 71.610954
v -2.959610 -28.480471 71.610954
v -2.959610 -36.632717 62.970463
v 9.239771 -36.632717 62.970463
v 5.310109 -40.541462 81.725227
v -3.508790 -40.541462 81.725227
v 5.310109 -32.989136 89.466225
v -3.508790 -32.989136 89.466225
v -1.149088 -49.068172 91.858040
vn 0.1031 0.8366 -0.5380
vn 0.1759 0.8042 -0.5678
vn 0.0000 -0.8151 -0.5793
vn -0.0727 -0.7710 0.6327
vn 0.0000 -0.8525 0.5227
vn 0.9018 0.0232 -0.4315
vn 0.9932 -0.1150 0.0169
vn 0.8866 0.0160 -0.4623
vn -0.8092 -0.5138 -0.2848
vn -0.9661 0.1100 -0.2335
vn -0.9767 0.1251 -0.1742
vn 0.6960 0.6503 -0.3044
vn -0.5459 0.7229 -0.4236
vn 0.0000 0.7930 -0.6093
vn 0.0901 0.7542 -0.6504
vn -0.3100 0.7198 -0.6211
vn 0.2741 0.5648 -0.7784
vn 0.1754 0.7188 0.6727
vn 0.8493 -0.5279 -0.0057
vn 0.7737 -0.5085 -0.3780
vn -0.5642 0.4316 -0.7039
vn 0.4034 -0.6228 -0.6704
vn -0.8233 0.4623 -0.3295
vn -0.1341 0.6928 0.7086
vn -0.4369 0.7300 0.5256
vn 0.1678 0.7480 0.6422
vn 0.8083 0.4315 -0.4005
vn 0.8554 0.4330 -0.2844
vn -0.1131 -0.6532 -0.7487
vn -0.7750 -0.5546 0.3030
vn -0.5229 -0.5363 -0.6626
vn -0.5059 0.5481 0.6660
vn -0.4860 0.5457 0.6827
vn 0.0104 0.6833 -0.7301
vn 0.4457 -0.7515 -0.4864
vn 0.4790 -0.7524 -0.4521
vn 0.8452 0.5160 0.1396
vn 0.8437 0.5163 0.1472
vn -0.8723 -0.3705 -0.3192
vn -0.8720 -0.3704 -0.3201
vn 0.4325 -0.7794 -0.4533
vn 0.5593 -0.7123 -0.4241
vn 0.8517 -0.1393 0.5052
vn 0.8452 0.1675 0.5075
vn -0.4327 0.7186 0.5444
vn -0.4445 0.7541 0.4835
vn -0.7824 -0.0338 -0.6219
vn -0.7775 0.0034 -0.6289
vn -0.0139 -0.9956 -0.0925
vn -0.0703 -0.9939 0.0849
vn 0.5401 -0.3113 0.7819
vn 0.4518 -0.1987 0.8697
vn 0.0418 0.9888 0.1435
vn 0.3414 0.9294 0.1404
vn -0.4842 0.1304 -0.8652
vn -0.3554 0.0929 -0.9301
vn 0.2404 0.8478 0.4726
vn 0.2261 0.8461 0.4828
vn 0.0000 0.3378 -0.9412
vn -0.1812 -0.9587 -0.2192
vn -0.2267 -0.9568 -0.1822
vn 0.9525 -0.1418 -0.2694
vn 0.9527 -0.1489 -0.2651
vn -0.9450 0.2906 -0.1504
vn -0.9400 0.3029 -0.1570
vn -0.1493 -0.9651 -0.2153
vn -0.1694 -0.9702 -0.1730
vn 0.8905 -0.0636 -0.4505
vn 0.9485 -0.0019 -0.3169
vn 0.1714 0.9383 0.3005
vn 0.1911 0.9469 0.2586
vn -0.9356 0.1194 0.3322
vn -0.9704 0.0524 0.2359
vn -0.1483 -0.9656 -0.2138
vn 0.0749 -0.9611 -0.2660
vn 0.3006 0.2120 -0.9299
vn 0.7188 0.3999 -0.5686
vn 0.0537 0.9948 0.0871
vn 0.0551 0.9940 0.0943
vn -0.4760 -0.2627 0.8393
vn -0.6004 -0.0577 0.7976
vn 0.8018 0.0820 -0.5919
vn 0.6824 0.2009 -0.7028
vn -0.6007 0.2654 -0.7541
vn -0.7396 0.0855 -0.6676
vn 0.1754 0.9807 -0.0866
vn 0.0000 0.3659 0.9307
vn -0.1291 0.9729 -0.1919
vn 0.2666 0.9316 -0.2473
vn 0.8852 0.1702 0.4330
vn 0.9311 0.1661 -0.3247
vn -0.9001 0.1594 0.4055
vn -0.8734 0.4510 -0.1838
vn -0.8570 0.4971 -0.1361
vn -0.1337 0.9888 0.0662
vn 0.2731 0.9619 -0.0119
vn -0.9714 -0.1637 0.1718
vn 0.9637 -0.1772 0.1995
vn 0.0000 -0.2358 -0.9718
vn 0.0288 -0.2765 -0.9606
vn 0.6128 0.0298 -0.7897
vn -0.4582 -0.2008 -0.8659
vn 0.9908 -0.1213 -0.0600
vn 0.9548 -0.2655 -0.1334
vn -0.9416 -0.1647 -0.2939
vn -0.9417 -0.1425 -0.3047
vn -0.4952 0.0181 0.8686
vn 0.1393 0.9596 -0.2443
vn 0.1732 0.9506 -0.2574
vn 0.4947 0.0448 -0.8679
vn -0.0000 -1.0000 -0.0000
vn 0.8283 -0.0034 0.5603
vn 0.8271 0.0072 0.5620
vn 0.8290 0.0014 0.5593
vn -0.8569 0.0011 -0.5155
vn -0.8565 -0.0025 -0.5161
vn -0.8571 -0.0004 -0.5152
vn -0.4956 0.3148 0.8095
vn -0.4656 0.3410 0.8167
vn 0.8621 -0.0188 0.5065
vn 0.8299 -0.0490 0.5558
vn 0.5509 -0.4963 -0.6710
vn 0.4555 -0.5671 -0.6862
vn -0.8556 -0.0738 -0.5124
vn -0.8527 -0.0696 -0.5178
vn -0.3845 -0.1945 0.9024
vn -0.4148 -0.2834 0.8647
vn -0.4283 -0.2812 0.8588
vn 0.8250 0.2782 0.4920
vn 0.9098 0.2009 0.3632
vn 0.4409 0.2863 -0.8507
vn 0.4786 0.3975 -0.7829
vn -0.7607 -0.4528 -0.4650
vn -0.8206 -0.3962 -0.4118
vn 0.5690 0.0744 0.8189
vn 0.5644 0.0653 0.8229
vn -0.6575 0.0000 -0.7535
vn 0.7397 0.0000 -0.6730
vn -0.8012 -0.0050 0.5984
vn -0.1764 0.9592 -0.2210
vn -0.1764 0.9633 -0.2021
vn 0.5862 0.1595 0.7943
vn 0.5651 0.1383 0.8133
vn 0.7187 -0.2508 -0.6485
vn 0.7459 -0.2980 -0.5957
vn -0.6021 -0.2940 -0.7423
vn -0.5970 -0.2897 -0.7481
vn -0.7830 0.1312 0.6081
vn -0.7928 0.1448 0.5921
vn 0.7789 -0.0797 -0.6220
vn 0.7805 -0.0760 -0.6205
vn -0.8037 -0.0116 0.5950
vn -0.8101 0.0000 0.5863
vn 0.4301 -0.4982 0.7529
vn 0.4737 -0.4970 0.7271
vn 0.4769 -0.6087 0.6340
vn 0.6536 -0.4053 -0.6392
vn 0.8555 -0.2250 -0.4663
vn -0.5438 0.5353 -0.6463
vn -0.5390 0.5070 -0.6726
vn -0.7631 0.2141 0.6098
vn -0.7328 0.2220 0.6433
vn 0.1149 0.6014 0.7906
vn 0.0000 0.5064 0.8623
vn 0.0225 -0.7153 -0.6985
vn 0.0000 -0.6957 -0.7183
vn 0.9936 0.0683 0.0898
vn 0.9910 -0.0973 0.0918
vn -0.9875 0.0189 0.1567
vn -0.9698 -0.1773 0.1673
vn 0.0000 -0.9790 -0.2040
vn 0.9701 -0.1765 0.1665
vn 0.9701 -0.1738 0.1696
vn 0.0000 0.9696 0.2448
vn -0.9994 0.0254 -0.0240
vn -0.9994 0.0250 -0.0244
vn 0.0000 -0.7651 -0.6439
vn 0.8980 -0.3150 0.3073
vn 0.0000 0.1471 0.9891
vn -0.9843 -0.1262 0.1231
vn 0.2790 -0.9196 -0.2767
vn -0.0759 -0.9003 -0.4287
vn -0.1469 -0.9108 0.3859
vn 0.0561 -0.7993 0.5983
vn 0.2315 -0.6264 0.7443
vn -0.0073 -0.5856 0.8106
vn 0.0000 -0.1708 -0.9853
vn 0.0412 -0.1103 -0.9930
vn 0.0996 -0.7218 0.6849
vn 0.0000 -0.6568 0.7541
vn 0.8655 0.4983 0.0509
vn 0.7836 0.6036 -0.1470
vn 0.6619 -0.6922 -0.2877
vn 0.0179 -0.6958 0.7180
vn 0.9301 -0.3221 0.1768
vn -0.9831 -0.0421 0.1780
vn -0.8688 -0.0360 -0.4939
vn -0.9089 -0.3194 -0.2682
vn -0.7107 0.7031 0.0243
vn -0.8674 -0.3737 0.3285
vn 0.2523 -0.5467 0.7984
vn 0.0000 0.9927 -0.1210
vn 0.9524 -0.1729 0.2512
vn 0.9073 0.3984 -0.1347
usemtl None
s off
f 1//1 2//1 3//1
f 4//2 3//2 2//2
f 5//3 6//3 7//3
f 6//3 8//3 7//3
f 9//4 7//4 10//4
f 7//5 8//5 10//5
f 11//6 10//6 12//6
f 6//7 12//7 8//7
f 10//8 8//8 12//8
f 7//9 9//9 5//9
f 13//10 14//10 9//10
f 9//11 14//11 5//11
f 12//12 6//12 1//12
f 14//13 2//13 5//13
f 6//14 5//14 1//14
f 2//15 1//15 5//15
f 15//16 16//16 17//16
f 18//17 19//17 20//17
f 18//18 11//18 19//18
f 11//19 12//19 19//19
f 12//20 20//20 19//20
f 18//21 20//21 1//21
f 12//22 1//22 20//22
f 1//23 3//23 18//23
f 3//24 11//24 18//24
f 15//25 13//25 16//25
f 13//26 4//26 16//26
f 4//27 2//27 16//27
f 16//28 2//28 17//28
f 2//29 14//29 17//29
f 13//30 15//30 14//30
f 14//31 15//31 17//31
f 21//32 22//32 23//32
f 23//33 22//33 24//33
f 24//34 22//34 25//34
f 22//34 26//34 25//34
f 27//35 28//35 26//35
f 25//36 26//36 28//36
f 26//37 22//37 27//37
f 27//38 22//38 21//38
f 25//39 28//39 24//39
f 28//40 23//40 24//40
f 27//41 29//41 28//41
f 28//42 29//42 30//42
f 29//43 27//43 31//43
f 27//44 21//44 31//44
f 31//45 21//45 32//45
f 21//46 23//46 32//46
f 30//47 32//47 28//47
f 23//48 28//48 32//48
f 33//49 34//49 29//49
f 30//50 29//50 34//50
f 29//51 31//51 33//51
f 31//52 35//52 33//52
f 31//53 32//53 35//53
f 32//54 36//54 35//54
f 30//55 34//55 32//55
f 32//56 34//56 36//56
f 37//57 38//57 39//57
f 38//58 40//58 39//58
f 39//59 40//59 41//59
f 40//59 42//59 41//59
f 43//60 41//60 44//60
f 41//61 42//61 44//61
f 40//62 38//62 42//62
f 44//63 42//63 38//63
f 39//64 41//64 37//64
f 41//65 43//65 37//65
f 45//66 43//66 46//66
f 43//67 44//67 46//67
f 44//68 38//68 46//68
f 38//69 47//69 46//69
f 48//70 47//70 37//70
f 38//71 37//71 47//71
f 43//72 45//72 37//72
f 37//73 45//73 48//73
f 45//74 46//74 49//74
f 46//75 50//75 49//75
f 46//76 47//76 50//76
f 47//77 51//77 50//77
f 52//78 51//78 48//78
f 47//79 48//79 51//79
f 49//80 52//80 45//80
f 48//81 45//81 52//81
f 11//82 36//82 10//82
f 36//83 34//83 10//83
f 13//84 9//84 51//84
f 50//85 51//85 9//85
f 53//86 3//86 4//86
f 54//87 55//87 56//87
f 55//87 57//87 56//87
f 13//88 56//88 53//88
f 57//89 11//89 53//89
f 55//90 35//90 57//90
f 11//91 35//91 36//91
f 54//92 56//92 52//92
f 56//93 13//93 52//93
f 51//94 52//94 13//94
f 53//95 4//95 13//95
f 11//96 3//96 53//96
f 52//97 49//97 54//97
f 33//98 35//98 55//98
f 58//99 59//99 10//99
f 59//100 9//100 10//100
f 10//101 34//101 58//101
f 50//102 9//102 59//102
f 58//103 34//103 60//103
f 34//104 33//104 60//104
f 50//105 59//105 49//105
f 59//106 61//106 49//106
f 62//107 63//107 64//107
f 63//107 65//107 64//107
f 66//108 67//108 68//108
f 69//109 68//109 67//109
f 67//110 66//110 70//110
f 66//110 71//110 70//110
f 71//111 63//111 70//111
f 70//111 63//111 62//111
f 71//112 66//112 63//112
f 66//113 68//113 63//113
f 63//114 68//114 65//114
f 70//115 62//115 67//115
f 67//116 62//116 69//116
f 62//117 64//117 69//117
f 72//118 73//118 65//118
f 64//119 65//119 73//119
f 74//120 72//120 68//120
f 65//121 68//121 72//121
f 74//122 68//122 75//122
f 68//123 69//123 75//123
f 75//124 69//124 73//124
f 69//125 64//125 73//125
f 76//126 77//126 72//126
f 78//127 73//127 77//127
f 73//128 72//128 77//128
f 74//129 79//129 72//129
f 72//130 79//130 76//130
f 79//131 74//131 80//131
f 74//132 75//132 80//132
f 75//133 73//133 80//133
f 73//134 78//134 80//134
f 81//135 82//135 83//135
f 84//136 83//136 82//136
f 85//137 86//137 87//137
f 86//137 88//137 87//137
f 83//111 84//111 88//111
f 87//111 88//111 84//111
f 89//138 88//138 86//138
f 90//139 84//139 82//139
f 90//140 89//140 85//140
f 89//141 86//141 85//141
f 91//142 92//142 81//142
f 82//143 81//143 92//143
f 93//144 91//144 89//144
f 81//145 89//145 91//145
f 93//146 89//146 94//146
f 89//147 90//147 94//147
f 94//148 90//148 92//148
f 90//149 82//149 92//149
f 83//150 89//150 81//150
f 83//151 88//151 89//151
f 87//152 84//152 90//152
f 87//153 90//153 85//153
f 95//154 92//154 96//154
f 91//155 97//155 92//155
f 92//156 97//156 96//156
f 93//157 98//157 91//157
f 91//158 98//158 97//158
f 99//159 98//159 94//159
f 93//160 94//160 98//160
f 94//161 92//161 99//161
f 92//162 95//162 99//162
f 100//163 101//163 102//163
f 103//164 102//164 101//164
f 96//165 77//165 104//165
f 77//166 105//166 104//166
f 100//167 102//167 77//167
f 105//168 77//168 102//168
f 101//169 96//169 103//169
f 96//170 104//170 103//170
f 105//171 106//171 104//171
f 104//171 106//171 107//171
f 105//172 102//172 106//172
f 102//173 108//173 106//173
f 102//174 103//174 108//174
f 103//174 109//174 108//174
f 104//175 107//175 103//175
f 103//176 107//176 109//176
f 107//177 106//177 110//177
f 106//178 108//178 110//178
f 108//179 109//179 110//179
f 109//180 107//180 110//180
f 78//181 97//181 80//181
f 97//182 98//182 80//182
f 97//183 78//183 96//183
f 78//184 77//184 96//184
f 95//185 96//185 101//185
f 100//186 77//186 76//186
f 58//187 80//187 59//187
f 59//188 80//188 98//188
f 100//189 55//189 101//189
f 55//190 54//190 101//190
f 55//191 79//191 60//191
f 60//192 79//192 58//192
f 58//193 79//193 80//193
f 76//194 55//194 100//194
f 60//195 33//195 55//195
f 49//196 61//196 54//196
f 99//197 61//197 98//197
f 61//198 59//198 98//198
f 61//199 99//199 54//199
f 99//200 95//200 54//200
f 54//201 95//201 101//201
f 53//202 56//202 57//202
f 76//203 79//203 55//203
f 57//204 35//204 11//204
